<svg width="3133" height="3133" viewBox="0 0 3133 3133" fill="none" xmlns="http://www.w3.org/2000/svg">
<rect width="3133" height="3133" rx="1566.5" fill="#666666"/>
<path d="M741.857 1680.06H811.436C938.741 1965.1 1228.4 2164.38 1566.5 2164.38C1904.6 2164.38 2194.26 1965.1 2321.56 1680.06H2391.14C2436.5 1680.06 2473.61 1643.74 2473.61 1599.34V1115.03C2473.61 1070.64 2436.5 1034.31 2391.14 1034.31H2321.56C2194.26 749.274 1904.6 550 1566.5 550C1228.4 550 938.741 749.274 811.436 1034.31H741.857C696.502 1034.31 659.393 1070.64 659.393 1115.03V1599.34C659.393 1643.74 696.502 1680.06 741.857 1680.06ZM948.018 1236.11C948.018 1124.62 1058.83 1034.31 1195.41 1034.31H1937.59C2074.17 1034.31 2184.98 1124.62 2184.98 1236.11V1357.19C2184.98 1624.57 1963.36 1841.5 1690.2 1841.5H1442.8C1169.64 1841.5 948.018 1624.57 948.018 1357.19V1236.11ZM1319.11 1599.34L1380.96 1417.73L1566.5 1357.19L1380.96 1296.65L1319.11 1115.03L1257.26 1296.65L1071.71 1357.19L1257.26 1417.73L1319.11 1599.34ZM2100.46 2171.44C1946.35 2268.8 1763.38 2325.81 1566.5 2325.81C1369.62 2325.81 1186.65 2268.8 1032.54 2171.44C684.648 2207.26 412 2492.29 412 2842.41V2890.84C412 3024.53 522.811 3133 659.393 3133H1071.71V2810.12C1071.71 2720.83 1145.42 2648.69 1236.64 2648.69H1896.36C1987.58 2648.69 2061.29 2720.83 2061.29 2810.12V3133H2473.61C2610.19 3133 2721 3024.53 2721 2890.84V2842.41C2721 2492.29 2448.35 2207.26 2100.46 2171.44ZM1813.89 2810.12C1768.54 2810.12 1731.43 2846.45 1731.43 2890.84C1731.43 2935.24 1768.54 2971.56 1813.89 2971.56C1859.25 2971.56 1896.36 2935.24 1896.36 2890.84C1896.36 2846.45 1859.25 2810.12 1813.89 2810.12ZM1319.11 2810.12C1273.75 2810.12 1236.64 2846.45 1236.64 2890.84V3133H1401.57V2890.84C1401.57 2846.45 1364.46 2810.12 1319.11 2810.12Z" fill="#EEEEEE"/>
</svg>
